<?xml version="1.0" encoding="utf-8"?>
<!-- Generator: Adobe Illustrator 24.2.2, SVG Export Plug-In . SVG Version: 6.00 Build 0)  -->
<svg version="1.1" id="Calque_1" xmlns="http://www.w3.org/2000/svg" xmlns:xlink="http://www.w3.org/1999/xlink" x="0px" y="0px"
	 viewBox="0 0 2048 528" style="enable-background:new 0 0 2048 528;" xml:space="preserve">
<style type="text/css">
	.st0{filter:url(#dropshadow);}
	.st1{fill:#8E8E8E;}
</style>
<filter  height="130%" id="dropshadow">
	<feGaussianBlur  in="SourceAlpha" stdDeviation="3"></feGaussianBlur>
	<!--  stdDeviation is how much to blur  -->
	<feOffset  dx="2" dy="2" result="offsetblur"></feOffset>
	<!--  how much to offset  -->
	<feComponentTransfer>
		<feFuncA  slope="0.5" type="linear"></feFuncA>
		<!--  slope is the opacity of the shadow  -->
	</feComponentTransfer>
	<feMerge>
		<feMergeNode></feMergeNode>
		<!--  this contains the offset blurred image  -->
		<feMergeNode  in="SourceGraphic"></feMergeNode>
		<!--  this contains the element that the filter is applied to  -->
	</feMerge>
</filter>
<g transform="translate(0.000000,528.000000) scale(0.100000,-0.100000)" class="st0">
	<g>
		<g>
			<path class="st1" d="M2595,5124c-11-1-69-8-130-14c-285-30-555-113-840-258C901,4484,404,3775,295,2955c-21-158-21-471,0-628
				c59-445,218-835,489-1197c81-109,327-360,433-444c508-398,1157-587,1798-521c786,80,1482,525,1886,1206
				c297,502,410,1109,313,1684c-47,280-158,588-299,830c-403,694-1103,1148-1897,1230C2890,5128,2656,5133,2595,5124z M2850,4170
				c22-11,51-37,64-58c24-36,776-1584,776-1596c0-3-92-6-205-6h-205l-62,125l-63,125h-395l-395-1l-59-124l-59-125h-209h-208l14,33
				c42,96,750,1547,769,1574C2661,4188,2768,4212,2850,4170z M2856,2395c23-14,53-42,66-62c23-38,23-39,26-435c2-274,6-398,14-398
				c29,0,140,72,194,126c76,76,137,191,154,293l12,71h185h186l-6-77c-21-257-173-511-400-665c-78-53-204-111-292-134
				c-100-27-370-27-470,0c-376,99-656,427-692,808l-6,68h190h190l6-59c12-114,91-258,181-333c46-38,146-98,163-98c10,0,13,72,13,373
				c0,229,4,387,11,410c12,46,63,105,104,123C2735,2428,2808,2423,2856,2395z"/>
			<path class="st1" d="M2677,3400c-46-96-101-208-121-247l-36-73h239h240l-24,53c-13,28-66,140-118,247l-95,195L2677,3400z"/>
			<path class="st1" d="M12485,3630c-336-47-598-219-748-490c-157-284-155-719,5-1008c130-236,335-386,628-460c92-23,125-26,265-26
				c131,0,175,4,242,22c185,48,330,132,423,243c42,51,49,64,38,74c-7,7-87,67-176,134l-164,122l-51-54c-101-104-198-147-337-147
				c-203,0-373,105-467,287c-51,97-73,194-73,316c0,182,56,323,175,443c117,118,229,160,404,152c119-6,184-30,269-98l62-50l159,128
				c88,70,160,133,160,140c1,18-84,98-152,143c-77,50-184,93-282,114C12773,3635,12573,3643,12485,3630z"/>
			<path class="st1" d="M16915,3630c-384-51-690-287-806-623c-36-105-59-247-59-367c0-572,383-967,965-996c331-17,626,83,827,280
				c110,108,198,267,245,441c23,90,26,117,26,275s-3,185-26,275c-108,404-403,655-840,714C17159,3641,17005,3641,16915,3630z
				 M17222,3229c29-6,90-28,135-50c134-64,226-171,280-324c25-72,28-93,28-215c0-115-3-145-23-205c-53-159-144-265-284-334
				c-96-48-157-61-277-61c-266,1-479,152-557,397c-25,77-30,266-10,357c47,209,204,376,407,430C16986,3242,17148,3244,17222,3229z"
				/>
			<path class="st1" d="M7718,3577c-53-15-106-53-142-100c-17-23-723-1622-783-1775c-4-10,44-12,233-10l239,3l78,198l79,197h367h367
				l81-197l80-198l243-3c228-2,242-1,237,15c-2,10-88,207-190,438c-101,231-266,606-366,833s-192,435-206,461c-26,53-82,106-131,127
				S7771,3591,7718,3577z M7904,2715l104-260l-220-3c-122-1-223-1-225,1c-3,3,176,466,208,537C7785,3020,7770,3052,7904,2715z"/>
			<path class="st1" d="M9355,3576c-51-23-84-67-95-126c-12-63-12-1730-1-1749c5-8,67-11,217-9l209,3l5,660l5,659l410-662l410-663
				l227,3c252,3,255,4,306,78l22,33v893v894h-215h-215l-2-647l-3-647l-400,647l-400,647h-225C9444,3589,9377,3586,9355,3576z"/>
			<path class="st1" d="M13840,2640v-950h215h215v410v410h400h400l2-407l3-408h215h215v945v945h-215h-215l-3-352l-2-353h-400h-400
				v355v355h-215h-215V2640z"/>
			<path class="st1" d="M18765,3576c-51-23-84-67-95-127c-6-34-9-364-8-904l3-850h215h215l3,378l2,378l97-3l97-3l199-377l199-378
				h254c140,0,254,4,254,8c0,5-106,183-235,396c-130,213-233,391-230,395c2,5,22,12,42,16c61,11,169,73,217,125
				c99,105,141,239,133,420c-10,223-97,365-281,456c-138,67-210,76-656,81C18869,3589,18789,3588,18765,3576z M19531,3211
				c51-16,115-65,135-103c22-42,22-143,1-184c-20-39-54-69-102-91c-33-14-76-18-255-21l-215-4v212v212l200-5
				C19405,3224,19511,3217,19531,3211z"/>
		</g>
	</g>
</g>
</svg>
