<?xml version="1.0" encoding="utf-8"?>
<!-- Generator: Adobe Illustrator 24.2.2, SVG Export Plug-In . SVG Version: 6.00 Build 0)  -->
<svg version="1.1" id="Calque_1" xmlns="http://www.w3.org/2000/svg" xmlns:xlink="http://www.w3.org/1999/xlink" x="0px" y="0px"
	 viewBox="0 0 186.6 309.7" style="enable-background:new 0 0 186.6 309.7;" xml:space="preserve">
<style type="text/css">
	.st0{fill:#FFFFFF;}
</style>
<g transform="translate(0.000000,528.000000) scale(0.100000,-0.100000)">
	<g>
		<g>
			<path class="st0" d="M420,3599.3l59,125l59,124l395,1h395l63-125l62-125h205c113,0,205,3,205,6c0,12-752,1560-776,1596
				c-13,21-42,47-64,58c-82,42-189,18-237-53c-19-27-727-1478-769-1574l-14-33h208L420,3599.3L420,3599.3z M729.5,4297.8
				c20,39,75,151,121,247l85,175l95-195c52-107,105-219,118-247l24-53h-240h-239L729.5,4297.8z"/>
			<path class="st0" d="M1680,3079.3h-185l-12-71c-17-102-78-217-154-293c-54-54-165-126-194-126c-8,0-12,124-14,398
				c-3,396-3,397-26,435c-13,20-43,48-66,62c-48,28-121,33-171,11c-41-18-92-77-104-123c-7-23-11-181-11-410c0-301-3-373-13-373
				c-17,0-117,60-163,98c-90,75-169,219-181,333l-6,59H190H0l6-68c36-381,316-709,692-808c100-27,370-27,470,0c88,23,214,81,292,134
				c227,154,379,408,400,665l6,77H1680z"/>
		</g>
	</g>
</g>
</svg>
