<?xml version="1.0" encoding="utf-8"?>
<!-- Generator: Adobe Illustrator 24.2.2, SVG Export Plug-In . SVG Version: 6.00 Build 0)  -->
<svg version="1.1" id="Calque_1" xmlns="http://www.w3.org/2000/svg" xmlns:xlink="http://www.w3.org/1999/xlink" x="0px" y="0px"
	 viewBox="0 0 2580 672" style="enable-background:new 0 0 2580 672;" xml:space="preserve">
<style type="text/css">
	.st0{fill:#8E8E8E;}
</style>
<g transform="translate(0.000000,672.000000) scale(0.100000,-0.100000)">
	<path class="st0" d="M2563,6710c-226-48-428-229-568-509c-140-281-233-704-252-1148c-4-101-10-153-17-153c-6,0-70-7-141-15
		c-695-80-1214-292-1442-587c-241-314-175-684,183-1028c108-103,172-153,335-260c120-78,484-268,494-258c3,3-38,34-92,69
		c-522,344-832,704-859,997c-31,333,330,583,1004,698c141,24,417,54,492,54h37l7-127c13-239,49-558,92-807l15-89l-30-37
		c-233-290-522-732-665-1018c-133-265-244-568-292-797c-25-117-28-151-29-330c0-179,2-208,23-278c40-140,87-222,182-318
		s146-128,270-169c210-71,445-63,748,25c636,182,1422,715,2137,1446c1075,1100,1776,2404,1742,3244c-7,170-29,264-93,394
		c-83,168-224,283-411,332c-111,30-301,30-442,0c-292-62-601-202-933-424l-124-83l-60,115c-128,249-280,474-442,656
		c-171,192-362,327-547,385C2807,6714,2634,6725,2563,6710z M2840,6464c221-51,513-278,772-599c93-116,268-354,268-366
		c0-3-54-47-119-97c-119-92-179-148-116-107c60,39,259,155,265,155c3,0,39-54,80-119c41-66,77-118,78-116c2,2-21,61-52,132
		c-52,119-55,129-39,141c26,19,284,149,378,189c494,213,887,259,1107,130c55-32,129-111,158-166c109-215,70-599-106-1044
		c-61-153-149-347-159-347c-3,0-68,27-144,60c-262,113-639,245-918,320l-121,33l-104,239l-103,238l-599-2l-599-3l-48-110l-48-110
		h-90c-50,0-184,1-297,3l-207,2l7,158c29,657,149,1084,363,1284C2560,6467,2688,6500,2840,6464z M2360,4570
		c940-52,1893-253,2703-571c70-28,127-53,127-56c0-30-399-633-419-633c-4,0-78,161-164,357l-155,357l-99,28
		c-430,125-907,223-1363,282c-165,22-496,56-536,56c-17,0-98-189-96-225c15-227,116-793,208-1170c64-256,185-672,231-787l15-38h481
		h481l-39-41c-125-129-447-403-680-576c-130-98-152-111-162-97c-18,25-120,254-194,438c-55,138-66,173-57,189c8,16,8,19-5,14
		c-18-7-62,111-162,433c-183,590-316,1255-365,1815c-5,66-12,146-15,178l-6,57h43C2156,4580,2258,4575,2360,4570z M3535,3485
		c91-236,163-430,162-432c-2-2-157-2-344-1l-340,3l170,443c106,274,174,437,179,429C3366,3919,3444,3721,3535,3485z M1899,3303
		l22-108l-355-813c-196-447-356-820-356-827c0-13,84-15,611-15h611l11,30c6,16,14,30,17,30s43-75,90-165c53-103,81-168,75-174
		c-22-20-238-138-350-191c-475-225-835-258-1022-95c-94,82-141,208-150,400c-21,450,221,1124,674,1878c53,86,96,157,98,157
		C1876,3410,1887,3362,1899,3303z"/>
	<path class="st0" d="M5771,3968c-10-24-40-88-65-142c-25-55-45-100-44-101c2-1,69-41,151-89c470-279,746-592,747-846
		c1-262-266-499-745-663c-110-38-343-101-450-121l-30-6l-155,355c-85,195-158,354-161,353c-4-2-70-82-146-179
		c-182-228-320-385-520-590l-162-165l45-117l46-117h624c343,0,624,3,624,8c0,4-38,94-85,201c-47,106-85,197-85,202s22,9,48,9
		c72,0,282,28,420,55c235,48,482,144,637,248c83,56,192,170,238,247c61,105,82,186,82,320s-20,210-90,349c-132,262-408,530-799,775
		c-49,31-93,56-98,56S5781,3991,5771,3968z"/>
	<path class="st0" d="M11235,3889c-80-11-216-54-290-91c-201-101-343-264-417-478c-32-93-33-99-33-265c1-164,2-173,32-263
		c44-130,101-222,202-323c119-119,251-192,427-236c109-27,381-25,498,5c312,78,544,295,626,584c33,113,37,287,12,411
		c-84,404-449,672-905,666C11336,3898,11268,3894,11235,3889z M11544,3427c136-63,216-200,216-372c-1-200-97-342-266-391
		c-128-37-261,2-353,101c-76,84-96,143-96,290c0,102,4,129,23,177c42,104,141,190,249,218C11378,3465,11484,3454,11544,3427z"/>
	<path class="st0" d="M16195,3890c-217-34-431-151-556-304c-70-86-133-216-159-330c-19-82-22-115-17-233c5-154,19-219,73-332
		c86-182,204-300,396-391c124-59,219-81,383-87c224-8,402,33,560,132c70,43,208,170,203,186c-2,4-78,75-170,157l-167,149l-61-59
		c-37-37-86-71-128-91c-61-29-76-32-162-32c-126,0-183,20-259,91c-82,75-113,147-119,275c-7,150,20,239,101,326
		c52,57,117,90,206,105c132,23,257-20,363-123l59-58l170,152c93,83,169,154,169,158s-39,43-86,88c-69,66-106,91-187,131
		c-138,67-238,90-412,95C16318,3897,16228,3895,16195,3890z"/>
	<path class="st0" d="M19371,3869c-268-34-442-187-458-401c-11-141,40-260,144-337c75-56,179-96,392-151c251-65,312-89,380-146
		c104-87,98-265-12-359c-81-70-205-100-382-92c-178,8-326,58-449,152c-26,20-49,35-51,33c-1-2-17-31-34-65l-31-62l43-36
		c60-52,186-111,302-142c87-23,120-26,255-26c226-1,364,40,471,140c95,89,130,168,130,298c0,176-88,292-279,370
		c-34,14-156,50-272,80c-117,30-240,69-276,87c-118,57-172,143-161,254c18,175,192,275,457,261c124-7,224-33,333-88l78-39l20,47
		c43,98,45,87-29,126C19777,3859,19567,3895,19371,3869z"/>
	<path class="st0" d="M20791,3869c-195-25-350-118-416-249c-67-135-56-307,28-416c76-99,184-151,466-224c251-65,312-89,380-146
		c102-86,99-263-7-355c-85-75-208-105-391-96c-175,8-323,59-445,152c-26,20-49,35-51,33c-1-2-17-31-34-65l-31-62l43-36
		c60-52,186-111,302-142c87-23,120-26,255-26c226-1,364,40,471,140c95,89,131,170,130,298c0,176-88,293-280,370
		c-33,14-148,48-254,75c-105,28-217,60-247,72c-155,61-220,148-207,274c18,175,196,276,460,261c121-7,223-34,330-88l78-39l20,47
		c43,98,45,87-29,126C21197,3859,20987,3895,20791,3869z"/>
	<path class="st0" d="M25061,3870c-213-30-361-123-430-269c-23-50-26-68-26-171c0-106,2-119,28-170c72-141,171-194,537-290
		c276-72,349-110,396-207c23-46,26-63,22-118c-11-128-90-206-247-246c-71-18-104-20-210-16c-181,7-302,44-432,133l-79,53l-31-60
		c-17-34-28-67-25-74c8-22,139-102,217-134c126-49,225-66,389-65c205,2,335,40,448,131c137,111,181,319,102,479
		c-38,78-90,124-195,175c-78,37-117,50-395,124c-212,56-298,104-339,188c-27,56-28,155-2,212c91,202,477,247,776,91
		c33-17,63-32,66-34c9-4,62,126,55,136c-13,21-160,84-251,107C25326,3873,25161,3884,25061,3870z"/>
	<path class="st0" d="M7467,3068c-190-436-349-801-353-811c-6-16,10-17,271-15l278,3l55,143l55,142l306-2l305-3l56-140l55-140l278-3
		c218-2,277,0,277,10c0,7-157,371-348,808l-347,795l-271,3l-271,2L7467,3068z M8159,3117c40-104,71-191,68-193c-2-3-72-3-154-2
		l-150,3l76,197c42,108,79,194,82,190S8120,3220,8159,3117z"/>
	<path class="st0" d="M8940,3650v-210h235h235l2-597l3-598l273-3l272-2v600v600h235h235v210v210h-745h-745V3650z"/>
	<path class="st0" d="M12510,3050v-810l248,2l247,3l5,349l5,348l170-276l170-275l121-1h122l54,93c31,50,109,182,174,292l119,200
		l5-365l5-365h245h245l3,808l2,807h-228h-228l-251-422c-138-233-255-423-260-422c-4,0-123,189-264,420l-256,419l-226,3l-227,2V3050z
		"/>
	<path class="st0" d="M14712,3053l3-808h270h270l3,808l2,807h-275h-275L14712,3053z"/>
	<path class="st0" d="M17842,3843c-33-64-722-1581-722-1591c0-8,26-12,84-12h83l99,220l99,220l450-2l450-3l96-215l97-215l86-3
		c65-2,86,0,86,10c0,7-163,371-363,808l-363,795l-87,3C17863,3860,17850,3858,17842,3843z M18139,3225l178-400l-380-3
		c-209-1-382-1-383,1c-2,2,22,62,55,133c32,71,118,264,191,428c131,293,134,298,147,270C17955,3638,18041,3445,18139,3225z"/>
	<path class="st0" d="M21870,3050v-810h570h570v75v75h-485h-485v300v300h415h415v75v75h-415h-415v285v285l468,2l467,3l3,73l3,72
		h-556h-555V3050z"/>
	<path class="st0" d="M23160,3785v-75h280h280l2-732l3-733h85h85l3,732l2,733l283,2l282,3l3,73l3,72h-656h-655V3785z"/>
	<path class="st0" d="M4772,950c-50-165-146-378-223-492c-56-84-172-196-238-232c-149-80-303-73-481,20c-184,96-393,307-587,591
		l-69,101l-81-52c-44-29-97-62-117-74l-37-22l71-93c144-188,357-401,506-505c93-64,255-144,339-167c94-25,238-30,317-11
		c295,69,500,349,593,810C4792,959,4796,1032,4772,950z"/>
</g>
</svg>
