<?xml version="1.0" encoding="utf-8"?>
<!-- Generator: Adobe Illustrator 24.2.2, SVG Export Plug-In . SVG Version: 6.00 Build 0)  -->
<svg version="1.1" id="Calque_1" xmlns="http://www.w3.org/2000/svg" xmlns:xlink="http://www.w3.org/1999/xlink" x="0px" y="0px"
	 viewBox="0 0 512 512" style="enable-background:new 0 0 512 512;" xml:space="preserve">
<style type="text/css">
	.st0{fill:#D66C44;}
	.st1{fill:#9F3E1A;}
	.st2{fill:#37596B;}
	.st3{fill:#C1CDD3;}
	.st4{fill:#D1CDC1;}
	.st5{fill:#11313D;}
</style>
<g>
	<path class="st0" d="M376,120v32v32l56,32v-64L376,120z"/>
	<path class="st1" d="M432,216l56-32v-64l-56,32V216z"/>
	<path class="st1" d="M256,152l56-32V56l-56,32V152z"/>
	<path class="st0" d="M256,88l-56-32v64l56,32V88z"/>
	<path class="st2" d="M24,120v64l56,32v-64L24,120z"/>
	<path class="st3" d="M27.7,119l55.8,31.3l55.3-33.2L83,85.8L27.7,119z"/>
	<path class="st4" d="M199.4,57.2l55.8,31.3l55.3-33.2L254.7,24L199.4,57.2z"/>
	<path class="st3" d="M205.4,225l55.8,31.3l55.3-33.2l-55.8-31.3L205.4,225z"/>
	<path class="st4" d="M372.4,119.7l55.8,31.3l55.3-33.2l-55.8-31.3L372.4,119.7z"/>
	<path class="st3" d="M378.2,330.4l55.8,31.3l55.3-33.2l-55.8-31.3L378.2,330.4z"/>
	<path class="st4" d="M199.2,392.7L255,424l55.3-33.2l-55.8-31.3L199.2,392.7z"/>
	<path class="st3" d="M23.4,327l55.8,31.3l55.3-33.2l-55.8-31.3L23.4,327z"/>
	<path class="st5" d="M136,152v-32l-56,32v64l56-32V152z"/>
	<path class="st5" d="M256,320l56-32v-64l-56,32V320z"/>
	<path class="st2" d="M200,224v64l56,32v-64L200,224z"/>
	<path class="st5" d="M432,424l56-32v-64l-56,32V424z"/>
	<path class="st2" d="M376,328v64l56,32v-64L376,328z"/>
	<path class="st1" d="M256,424v64l56-32v-24v-40L256,424z"/>
	<path class="st0" d="M200,392v40v24l56,32v-64L200,392z"/>
	<path class="st2" d="M24.3,329.7v64l56,32v-64L24.3,329.7z"/>
	<path class="st5" d="M136.3,361.7v-32l-56,32v64l56-32V361.7z"/>
</g>
<path d="M492,190.9c2.5-1.4,4-4.1,4-6.9v-64c0-2.9-1.5-5.5-4-6.9l-56-32c-2.5-1.4-5.5-1.4-7.9,0l-56,32c-2.5,1.4-4.1,4.1-4.1,6.9
	v19.1l-48-24V56c0-2.9-1.5-5.5-4-6.9l-56-32c-2.5-1.4-5.5-1.4-7.9,0l-56,32c-2.5,1.4-4.1,4.1-4.1,6.9v59.1l-48,24V120
	c0-2.9-1.5-5.5-4-6.9l-56-32c-2.5-1.4-5.5-1.4-7.9,0l-56,32c-2.5,1.4-4.1,4.1-4.1,6.9v64c0,2.9,1.5,5.5,4,6.9l52,29.7v70.7L20,321
	c-2.5,1.4-4,4.1-4,6.9v64c0,2.9,1.5,5.5,4,6.9l56,32c2.5,1.4,5.5,1.4,7.9,0l51.8-29.6l56.2,35.1V456c0,2.9,1.5,5.5,4,6.9l56,32
	c2.5,1.4,5.5,1.4,7.9,0l56-32c2.5-1.4,4.1-4.1,4.1-6.9v-19.6l56.2-35.1l51.8,29.6c2.5,1.4,5.5,1.4,7.9,0l56-32c2.5-1.4,4-4.1,4-6.9
	v-64c0-2.9-1.5-5.5-4-6.9l-52-29.7v-70.7L492,190.9z M440,202.2v-45.6l40-22.9v45.6L440,202.2z M432,350.8L392.1,328l39.9-22.8
	l39.9,22.8L432,350.8z M384,133.8l40,22.9v45.6l-40-22.9V133.8z M432,97.2l39.9,22.8L432,142.8L392.1,120L432,97.2z M256,414.8
	L216.1,392l39.9-22.8l39.9,22.8L256,414.8z M208,237.8l40,22.9v45.6l-40-22.9V237.8z M264,260.6l40-22.9v45.6l-40,22.9V260.6z
	 M256,246.8L216.1,224l39.9-22.8l39.9,22.8L256,246.8z M208,69.8l40,22.9v45.6l-40-22.9V69.8z M264,92.6l40-22.9v45.6l-40,22.9V92.6
	z M256,33.2L295.9,56L256,78.8L216.1,56L256,33.2z M88,156.6l40-22.9v45.6l-40,22.9V156.6z M80,97.2l39.9,22.8L80,142.8L40.1,120
	L80,97.2z M32,133.8l40,22.9v45.6l-40-22.9V133.8z M80,350.8L40.1,328L80,305.2l39.9,22.8L80,350.8z M32,341.8l40,22.9v45.6
	l-40-22.9V341.8z M88,410.2v-45.6l40-22.9v45.6L88,410.2z M144,387.6V328c0-2.9-1.5-5.5-4-6.9l-52-29.7v-70.7l52-29.7
	c2.5-1.4,4-4.1,4-6.9V157l55.8-27.9l48.2,27.6v30.7l-52,29.7c-2.5,1.4-4,4.1-4,6.9v64c0,2.9,1.5,5.5,4,6.9l52,29.7v30.7L196,385
	c-2.5,1.4-4,4.1-4,6.9v25.6L144,387.6z M208,405.8l40,22.9v45.6l-40-22.9V405.8z M264,474.2v-45.6l40-22.9v45.6L264,474.2z
	 M316,385.1l-52-29.7v-30.7l52-29.7c2.5-1.4,4-4.1,4-6.9v-64c0-2.9-1.5-5.5-4-6.9l-52-29.7v-30.7l48.2-27.6l55.8,27.9V184
	c0,2.9,1.5,5.5,4,6.9l52,29.7v70.7L372,321c-2.5,1.4-4,4.1-4,6.9v59.6l-48,30V392C320,389.1,318.5,386.5,316,385.1z M384,341.8
	l40,22.9v45.6l-40-22.9V341.8z M440,410.2v-45.6l40-22.9v45.6L440,410.2z"/>
</svg>
