<?xml version="1.0" encoding="utf-8"?><svg version="1.1" id="Calque_1" xmlns="http://www.w3.org/2000/svg" xmlns:xlink="http://www.w3.org/1999/xlink" x="0px" y="0px" viewBox="0 0 640 640" style="enable-background:new 0 0 640 640;" xml:space="preserve"><style type="text/css">.st0{fill-opacity:0;stroke:#324856;stroke-width:25;}</style><g><g><path id="A" class="st0" d="M443.1,226.6l58.2,261.2l-177.1,112l-180.5-112l60.2-261.2L322.7,56.8L443.1,226.6L443.1,226.6z"/></g><g><path id="B" class="st0" d="M204.1,226.6l120,373.3"/></g><g><path id="C" class="st0" d="M442.9,224.7L324.2,599.9"/></g><g><path id="D" class="st0" d="M322.5,180.7V60.4"/></g><g><path id="E" class="st0" d="M322.5,179.5L144.2,484.9c-0.5,0.9-0.2,2.1,0.7,2.7c0.3,0.2,0.6,0.3,1,0.3h350.3 c1.6,0,2.9-1.3,2.9-2.9c0-0.5-0.1-1-0.4-1.5L322.5,179.5z"/></g></g></svg>
