<?xml version="1.0" encoding="utf-8"?>
<!-- Generator: Adobe Illustrator 24.2.2, SVG Export Plug-In . SVG Version: 6.00 Build 0)  -->
<svg version="1.1" id="Calque_1" xmlns="http://www.w3.org/2000/svg" xmlns:xlink="http://www.w3.org/1999/xlink" x="0px" y="0px"
	 viewBox="0 0 172.8 45" style="enable-background:new 0 0 172.8 45;" xml:space="preserve">
<style type="text/css">
	.st0{fill:#8E8E8E;}
</style>
<g>
	<g>
		<g>
			<g>
				<path class="st0" d="M52.9,41.8c-10.9,0-14.9-7.5-15-14c-0.1-3.7,1.1-7,3.5-9.4c2.5-2.6,6.3-4.1,10.3-4.1c3.9,0,7.5,1.4,9.9,4
					c2.3,2.4,3.5,5.8,3.3,9.6l-0.1,1.3H44.2c0.2,1.8,0.8,3.3,2,4.5c1.7,1.7,4.3,2.7,7.2,2.7c2.6,0,5.2-0.8,7.2-2.1l2.2-1.5v6.4
					L62,39.7C59.2,41.1,56,41.8,52.9,41.8z M58.2,24c-1-3-3.9-4.3-6.7-4.3S45.8,21,44.7,24C44.7,24,58.2,24,58.2,24z"/>
			</g>
			<g>
				<path class="st0" d="M83.4,41.7c-10,0-14.5-7.1-14.6-13.7c0-3.7,1.3-7,3.7-9.4c2.7-2.7,6.8-4.3,11.1-4.3c4.3,0,8.3,1.5,11,4.2
					c2.4,2.4,3.7,5.6,3.7,9.3C98.2,36.9,90.7,41.7,83.4,41.7z M83.4,19.8c-5.5,0-7.9,4.4-7.9,8.5s2.4,8.2,7.8,8.2h0.5
					c2.6,0,4.7-0.9,6.2-2.5c1.3-1.5,2-3.5,2-5.7c0-4.1-2.6-8.5-8.3-8.5L83.4,19.8z"/>
			</g>
			<g>
				<path class="st0" d="M110.7,41.9c-3.3,0-6.3-0.8-8.5-2.3l-1.6-1.1l4.4-3.3l0.8,0.4c1.4,0.7,3,1.1,4.5,1.1l0,0c3,0,5-1.4,5.2-2.7
					c0.2-1.2-1.1-2.9-5.4-4.4c-7.9-3.2-7.9-7.6-7.6-9.3c0.7-3.6,4.7-6.2,9.5-6.2c2.5,0,5,0.7,7.3,2l1.9,1.1l-4.5,3.2l-0.7-0.2
					c-0.9-0.3-2.4-0.7-4-0.7c-1.1,0-2.9,0.2-3.2,1.3c0.1,1.8,2.3,2.9,5.5,4.5c3.6,1.7,8,3.8,7.3,8.4c0.1,1.9-0.4,3.6-1.7,4.9
					C118,40.7,114.6,41.9,110.7,41.9z"/>
			</g>
			<g>
				<path class="st0" d="M131,41.3V19.9h-5.2v-5.2h11.3L137,41.3H131z M134,11.2c-0.2,0-0.4,0-0.5,0c-2.3-0.2-3.4-2-3.4-3.7
					c0.1-1.7,1.4-3.6,3.7-3.6l0,0c1.2,0,2.1,0.4,2.8,1.2c0.6,0.7,0.9,1.5,0.9,2.5C137.5,9.7,136,11.2,134,11.2z"/>
			</g>
			<g>
				<path class="st0" d="M158,41.8c-7.3,0-14.7-4.7-14.7-13.8c0-9,7.5-13.7,14.8-13.7c10,0,14.6,7.1,14.7,13.7
					C172.7,37.1,165.3,41.8,158,41.8z M158.3,20.5c-0.3,0-0.7,0-1.1,0.1c-5.3,0.6-7.5,4.8-7.3,8.5s2.7,7.5,8,7.5h0.1
					c2.7,0,4.9-0.8,6.3-2.4c1.3-1.4,2-3.3,2-5.4C166.4,24.6,163.6,20.5,158.3,20.5z"/>
			</g>
		</g>
	</g>
	<g>
		<path class="st0" d="M0,35.8l4.5-21.1L15.5,0l11.2,14.7l4.5,21.1L15.5,45L0,35.8z M11.6,37.8L6.9,23.6L5.2,34L11.6,37.8z
			 M19.5,37.8l6.3-3.8l-1.7-10.4L19.5,37.8z M15.6,34.9l6.1-19.2l-6.1-8.3l-6.1,8.3L15.6,34.9z"/>
	</g>
</g>
</svg>
