<?xml version="1.0" encoding="utf-8"?>
<!-- Generator: Adobe Illustrator 24.2.2, SVG Export Plug-In . SVG Version: 6.00 Build 0)  -->
<svg version="1.1"
	 id="svg2" inkscape:version="0.91 r13725" sodipodi:docname="Piñata_Icon.svg" xmlns:cc="http://creativecommons.org/ns#" xmlns:dc="http://purl.org/dc/elements/1.1/" xmlns:inkscape="http://www.inkscape.org/namespaces/inkscape" xmlns:rdf="http://www.w3.org/1999/02/22-rdf-syntax-ns#" xmlns:sodipodi="http://sodipodi.sourceforge.net/DTD/sodipodi-0.dtd" xmlns:svg="http://www.w3.org/2000/svg"
	 xmlns="http://www.w3.org/2000/svg" xmlns:xlink="http://www.w3.org/1999/xlink" x="0px" y="0px" viewBox="0 0 1216 550"
	 style="enable-background:new 0 0 1216 550;" xml:space="preserve">
<style type="text/css">
	.st0{fill-rule:evenodd;clip-rule:evenodd;fill:#FF009E;}
	.st1{fill-rule:evenodd;clip-rule:evenodd;fill:#666666;}
	.st2{fill-rule:evenodd;clip-rule:evenodd;fill:#6B6B6B;}
	.st3{fill-rule:evenodd;clip-rule:evenodd;fill:#8E8E8E;}
	.st4{fill-rule:evenodd;clip-rule:evenodd;fill:#988400;}
	.st5{fill-rule:evenodd;clip-rule:evenodd;fill:#008298;}
	.st6{clip-path:url(#SVGID_2_);fill-rule:evenodd;clip-rule:evenodd;fill:#B7B7B7;}
	.st7{clip-path:url(#SVGID_4_);fill-rule:evenodd;clip-rule:evenodd;fill:#B7B7B7;}
	.st8{fill-rule:evenodd;clip-rule:evenodd;fill:#FFE001;}
	.st9{fill-rule:evenodd;clip-rule:evenodd;fill:#00BEDD;}
	.st10{fill:#FFFFFF;}
	.st11{clip-path:url(#SVGID_6_);}
	.st12{clip-path:url(#SVGID_8_);fill-rule:evenodd;clip-rule:evenodd;fill:#FFE000;}
	.st13{clip-path:url(#SVGID_10_);}
	.st14{clip-path:url(#SVGID_12_);fill-rule:evenodd;clip-rule:evenodd;fill:#8E8E8E;}
	.st15{fill-rule:evenodd;clip-rule:evenodd;fill:#444444;}
	.st16{fill-rule:evenodd;clip-rule:evenodd;fill:#B7B7B7;}
	.st17{clip-path:url(#SVGID_14_);}
	.st18{clip-path:url(#SVGID_16_);fill-rule:evenodd;clip-rule:evenodd;fill:#B7B7B7;}
	.st19{clip-path:url(#SVGID_18_);}
	.st20{fill:#8E8E8E;}
	.st21{font-family:'Abel-Regular';}
	.st22{font-size:335px;}
</style>
<sodipodi:namedview  bordercolor="#666666" borderopacity="1" gridtolerance="10" guidetolerance="10" id="namedview24212" inkscape:current-layer="svg2" inkscape:cx="570.59957" inkscape:cy="327.62877" inkscape:pageopacity="0" inkscape:pageshadow="2" inkscape:window-height="777" inkscape:window-maximized="0" inkscape:window-width="1442" inkscape:window-x="0" inkscape:window-y="0" inkscape:zoom="0.22627417" objecttolerance="10" pagecolor="#ffffff" showgrid="false" units="px">
	</sodipodi:namedview>
<g id="g13719" transform="matrix(0.27665485,0,0,0.27665485,-3055.7068,309.14703)">
	<path id="path11369" inkscape:connector-curvature="0" class="st0" d="M12168.8-625.2c286.5,66,289,283.5,0,296.5V-625.2z"/>
	<path id="path11371" inkscape:connector-curvature="0" class="st1" d="M11311.7-51.1c-105.6,20.1-156.4,111.5-151.3,179.1
		c0,0-47.6,0.8-52.8,0c-5.7-65.5,11.7-156.7,119.4-208.3c-53-27.8-102.4-27.9-144.4,29.2l-37.5-34.7c39.2-44.5,82-85.6,208.2-43
		c-32.8-89.7-90.6-101.7-152.7-100l1.4-54.1c166,1.8,190.6,90.5,207.3,186.9L11311.7-51.1z"/>
	<path id="path11373" inkscape:connector-curvature="0" class="st2" d="M11969.3-591.3c191.5-266.9,292.9-393.1,223.7-451.2
		c-72.6-60.9-189.2,60.1-456.5,272.2l116.4,89.5L11969.3-591.3z"/>
	<path id="path11375" inkscape:connector-curvature="0" class="st1" d="M12168.8-625.2c286.5,66,289,283.5,0,296.5V-625.2z"/>
	<path id="path11377" inkscape:connector-curvature="0" class="st3" d="M11531.6,636c-6.2,95.7,17.1,206.2-123.9,234.5
		c-104.4-3.1-159.5-75.2-146-243.4L11531.6,636z"/>
	<path id="path11379" inkscape:connector-curvature="0" class="st1" d="M11505,308.6l97.4,212.4l-70.8,4.4l70.8,146l-411.6-4.4
		l70.8-141.6h-75.2l132.8-247.8L11505,308.6z"/>
	<path id="path11381" inkscape:connector-curvature="0" class="st3" d="M12120.1,631.6c-6.2,95.7,17.1,206.2-123.9,234.5
		c-104.4-3.1-159.5-75.2-146-243.4L12120.1,631.6z"/>
	<path id="path11383" inkscape:connector-curvature="0" class="st1" d="M12182.1,667h-398.3l70.8-137.2l-70.8-4.4l115.1-252.2
		l199.1,22.1l79.7,225.7h-57.5L12182.1,667z"/>
	<path id="path11385" inkscape:connector-curvature="0" class="st4" d="M12093.6-98.6l79.7,194.7h-62l75.2,150.5l-70.8-4.4
		l75.2,141.6l-991.3-4.4l70.8-137.2l-79.7-4.4c129.3-221.9,172.8-285.1,385-278.8L12093.6-98.6z"/>
	<path id="path11387" inkscape:connector-curvature="0" class="st5" d="M12177.7-41h-606.3l70.8-141.6h-75.2l101.8-199.1h447
		l70.8,199.1h-75.2L12177.7-41z"/>
	<g>
		<defs>
			<path id="SVGID_1_" d="M12120.1,631.6c-6.2,95.7,17.1,206.2-123.9,234.5c-104.4-3.1-159.5-75.2-146-243.4L12120.1,631.6z"/>
		</defs>
		<clipPath id="SVGID_2_">
			<use xlink:href="#SVGID_1_"  style="overflow:visible;"/>
		</clipPath>
		<path id="path11389" inkscape:connector-curvature="0" class="st6" d="M12061.2,631.6c-4.9,95.7,13.4,206.2-97.1,234.5
			c-81.8-3.1-125-75.2-114.4-243.4L12061.2,631.6z"/>
	</g>
	<path id="path11391" inkscape:connector-curvature="0" class="st3" d="M12090,667h-306.2l54.4-137.2l-54.4-4.4l88.5-252.2
		l153.1,22.1l61.2,225.7h-44.2L12090,667z"/>
	<g>
		<defs>
			<path id="SVGID_3_" d="M11531.6,636c-6.2,95.7,17.1,206.2-123.9,234.5c-104.4-3.1-159.5-75.2-146-243.4L11531.6,636z"/>
		</defs>
		<clipPath id="SVGID_4_">
			<use xlink:href="#SVGID_3_"  style="overflow:visible;"/>
		</clipPath>
		<path id="path11393" inkscape:connector-curvature="0" class="st7" d="M11472.7,636c-4.9,95.7,13.4,206.2-97.1,234.5
			c-81.8-3.1-125-75.2-114.4-243.4L11472.7,636z"/>
	</g>
	<path id="path11395" inkscape:connector-curvature="0" class="st3" d="M11500.9,669.8h-314.6l55.9-138.2l-55.9-4.5l90.9-254
		l157.3,22.3l62.9,227.3h-45.4L11500.9,669.8z"/>
	<path id="path11397" inkscape:connector-curvature="0" class="st8" d="M12006.3-98.6l72,194.7h-56l68,150.5l-64-4.4l68,141.6
		l-895.5-4.4l64-137.2l-72-4.4c116.8-221.9,187.7-285.4,379.4-279L12006.3-98.6z"/>
	<path id="path11399" inkscape:connector-curvature="0" class="st9" d="M12069.4-41h-498.8l58.3-141.6h-61.9l83.7-199.1h367.7
		l58.2,199.1h-61.9L12069.4-41z"/>
	<circle id="circle11401" class="st10" cx="11980.6" cy="-526" r="65.7"/>
	<circle id="circle11403" cx="11980.6" cy="-526" r="32.9"/>
	<g>
		<defs>
			<polygon id="SVGID_5_" points="12168.8,-625.2 11690.9,-731.4 11558.1,-328.7 12168.8,-328.7 			"/>
		</defs>
		<clipPath id="SVGID_6_">
			<use xlink:href="#SVGID_5_"  style="overflow:visible;"/>
		</clipPath>
		<path id="rect11405" class="st11" d="M12301.8-283.8l-233.3-99.3c-11.1-4.7-22.3-3.5-25,2.8l0,0c-2.7,6.3,4.2,15.2,15.3,20
			l233.3,99.3c11.1,4.7,22.3,3.5,25-2.8l0,0C12319.8-270.1,12313-279.1,12301.8-283.8z"/>
	</g>
	<g>
		<defs>
			<rect id="SVGID_7_" x="11350.7" y="28.9" width="199.7" height="182.1"/>
		</defs>
		<clipPath id="SVGID_8_">
			<use xlink:href="#SVGID_7_"  style="overflow:visible;"/>
		</clipPath>
		<path id="path11407" inkscape:connector-curvature="0" class="st12" d="M11310.4-76.4L11230.7,85h62l-75.2,150.5l70.8-4.4
			l-75.2,141.6l991.3-4.4l-70.8-137.2l79.7-4.4c-129.3-221.9-172.8-251.8-385-245.5l-257.4-22.4L11310.4-76.4z"/>
	</g>
	<g>
		<defs>
			<path id="SVGID_9_" d="M12006.3-98.6l72,194.7h-56l68,150.5l-64-4.4l68,141.6l-895.5-4.4l64-137.2l-72-4.4
				c116.8-221.9,187.7-285.4,379.4-279L12006.3-98.6z"/>
		</defs>
		<clipPath id="SVGID_10_">
			<use xlink:href="#SVGID_9_"  style="overflow:visible;"/>
		</clipPath>
		<path id="path11409" inkscape:connector-curvature="0" class="st13" d="M11950.5,185.9l47.2-47.2l40.3,40l40.3,40l13-13.6l13-13.6
			l-53.2-53.1l-53.2-53.1l-45,44.8c-24.7,24.6-47.1,44.8-49.6,44.8s-24.9-20.1-49.6-44.8l-44.9-44.8l-46.1,45.9l-46.1,45.9
			l-44.9-44.8c-24.7-24.6-47-44.8-49.6-44.8c-2.6,0-24.9,20.1-49.6,44.8l-44.9,44.8l-46.1-45.9l-46.1-45.9l-44.9,44.8
			c-24.7,24.6-47,44.8-49.6,44.8s-24.9-20.1-49.6-44.8l-45-44.8l-53.2,53.1l-53.2,53.1l13,13.6l13,13.6l40.2-40l40.2-40l47.3,47.2
			l47.3,47.2l47.2-47.2l47.2-47.2l45.8,45.6l45.8,45.6l47.3-44.7l47.3-44.7l46.3,46.3l46.3,46.3l47.3-47.2l47.3-47.2l47.3,47.2
			l47.3,47.2L11950.5,185.9L11950.5,185.9z"/>
	</g>
	<g>
		<defs>
			<path id="SVGID_11_" d="M12168.8-625.2c286.5,66,289,283.5,0,296.5V-625.2z"/>
		</defs>
		<clipPath id="SVGID_12_">
			<use xlink:href="#SVGID_11_"  style="overflow:visible;"/>
		</clipPath>
		<path id="path11411" inkscape:connector-curvature="0" class="st14" d="M12141-704.3c330.8,76.1,333.6,327.3,0,342.3V-704.3z"/>
	</g>
	<path id="path11413" inkscape:connector-curvature="0" class="st3" d="M11950.1-611.7c53.8-324,88.9-482.1,1.2-503.6
		c-92-22.6-143.2,137.5-289.2,446l144,28.8L11950.1-611.7z"/>
	<path id="path11415" inkscape:connector-curvature="0" class="st15" d="M12093.6-98.6l79.7,194.7h-62l75.2,150.5l-70.8-4.4
		l75.2,141.6l-991.3-4.4l70.8-137.2l-79.7-4.4c129.3-221.9,172.8-285.1,385-278.8L12093.6-98.6z"/>
	<path id="path11417" inkscape:connector-curvature="0" class="st1" d="M12177.7-41h-606.3l70.8-141.6h-75.2l101.8-199.1h447
		l70.8,199.1h-75.2L12177.7-41z"/>
	<path id="path11419" inkscape:connector-curvature="0" class="st16" d="M12006.3-98.6l72,194.7h-56l68,150.5l-64-4.4l68,141.6
		l-895.5-4.4l64-137.2l-72-4.4c116.8-221.9,187.7-285.4,379.4-279L12006.3-98.6z"/>
	<path id="path11421" inkscape:connector-curvature="0" class="st3" d="M12069.4-41h-498.8l58.3-141.6h-61.9l83.7-199.1h367.7
		l58.2,199.1h-61.9L12069.4-41z"/>
	<path id="path11423" inkscape:connector-curvature="0" class="st16" d="M12168.8-625.2l-477.9-106.2l-119.3,237.5l66.1,1.3
		l-79.5,163.9h610.7v-148.3v-74.1L12168.8-625.2z"/>
	<circle id="circle11425" class="st10" cx="11980.6" cy="-526" r="65.7"/>
	<circle id="circle11427" cx="11980.6" cy="-526" r="32.9"/>
	<g>
		<defs>
			<polygon id="SVGID_13_" points="12168.8,-625.2 11690.9,-731.4 11558.1,-328.7 12168.8,-328.7 			"/>
		</defs>
		<clipPath id="SVGID_14_">
			<use xlink:href="#SVGID_13_"  style="overflow:visible;"/>
		</clipPath>
		<path id="rect11429" class="st17" d="M12301.8-283.8l-233.3-99.3c-11.1-4.7-22.3-3.5-25,2.8l0,0c-2.7,6.3,4.2,15.2,15.3,20
			l233.3,99.3c11.1,4.7,22.3,3.5,25-2.8l0,0C12319.8-270.1,12313-279.1,12301.8-283.8z"/>
	</g>
	<g>
		<defs>
			<rect id="SVGID_15_" x="11350.7" y="28.9" width="199.7" height="182.1"/>
		</defs>
		<clipPath id="SVGID_16_">
			<use xlink:href="#SVGID_15_"  style="overflow:visible;"/>
		</clipPath>
		<path id="path11431" inkscape:connector-curvature="0" class="st18" d="M11310.4-76.4L11230.7,85h62l-75.2,150.5l70.8-4.4
			l-75.2,141.6l991.3-4.4l-70.8-137.2l79.7-4.4c-129.3-221.9-172.8-251.8-385-245.5l-257.4-22.4L11310.4-76.4z"/>
	</g>
	<g>
		<defs>
			<path id="SVGID_17_" d="M12006.3-98.6l72,194.7h-56l68,150.5l-64-4.4l68,141.6l-895.5-4.4l64-137.2l-72-4.4
				c116.8-221.9,187.7-285.4,379.4-279L12006.3-98.6z"/>
		</defs>
		<clipPath id="SVGID_18_">
			<use xlink:href="#SVGID_17_"  style="overflow:visible;"/>
		</clipPath>
		<path id="path11433" inkscape:connector-curvature="0" class="st19" d="M11950.5,185.9l47.2-47.2l40.3,40l40.3,40l13-13.6l13-13.6
			l-53.2-53.1l-53.2-53.1l-45,44.8c-24.7,24.6-47.1,44.8-49.6,44.8s-24.9-20.1-49.6-44.8l-44.9-44.8l-46.1,45.9l-46.1,45.9
			l-44.9-44.8c-24.7-24.6-47-44.8-49.6-44.8c-2.6,0-24.9,20.1-49.6,44.8l-44.9,44.8l-46.1-45.9l-46.1-45.9l-44.9,44.8
			c-24.7,24.6-47,44.8-49.6,44.8s-24.9-20.1-49.6-44.8l-45-44.8l-53.2,53.1l-53.2,53.1l13,13.6l13,13.6l40.2-40l40.2-40l47.3,47.2
			l47.3,47.2l47.2-47.2l47.2-47.2l45.8,45.6l45.8,45.6l47.3-44.7l47.3-44.7l46.3,46.3l46.3,46.3l47.3-47.2l47.3-47.2l47.3,47.2
			l47.3,47.2L11950.5,185.9L11950.5,185.9z"/>
	</g>
</g>
<text transform="matrix(1 0 0 1 415.7586 415.3264)" class="st20 st21 st22">Pinata</text>
</svg>
