<?xml version="1.0" encoding="utf-8"?>
<!-- Generator: Adobe Illustrator 24.2.2, SVG Export Plug-In . SVG Version: 6.00 Build 0)  -->
<svg version="1.1" id="Capa_1" xmlns="http://www.w3.org/2000/svg" xmlns:xlink="http://www.w3.org/1999/xlink" x="0px" y="0px"
	 viewBox="0 0 512 512" style="enable-background:new 0 0 512 512;" xml:space="preserve">
<style type="text/css">
	.st0{fill:#D66C44;}
	.st1{fill:#9F3E1A;}
	.st2{fill:#5D7383;}
	.st3{fill:#324856;}
	.st4{fill:#08212D;}
	.st5{fill:#A5B4C6;}
	.st6{fill:#627184;}
</style>
<path class="st0" d="M283.9,491.6l-22.2,11.7c-3.6,1.9-7.8,1.9-11.4,0l-22.2-11.7C106,427.5,30.9,309.1,30.9,181v-78.2
	c0-6.2,4.6-11.5,10.8-12.1c42.1-4.4,75.5-34.6,80.9-72.7c0.9-6.1,6-10.7,12.1-10.7h242.8c6.2,0,11.3,4.6,12.1,10.7
	c5.3,38.1,38.8,68.2,80.9,72.7c6.2,0.6,10.8,5.9,10.8,12.1V181C481.1,309.1,406,427.5,283.9,491.6z"/>
<path class="st1" d="M470.4,90.6c-42.1-4.4-75.5-34.6-80.9-72.7c-0.9-6.1-6-10.7-12.1-10.7h-16.5c2.4,52.8,40,90.3,80.7,94.6
	c6.2,0.6,10.8,5.9,10.8,12.1v78.2c0,128.1-75.2,246.5-197.2,310.6l-2.6,1.3c3,0.9,6.3,0.6,9.1-0.9l22.2-11.7
	C406,427.5,481.1,309.1,481.1,181v-78.2C481.1,96.6,476.5,91.3,470.4,90.6z"/>
<path class="st2" d="M247.8,460.3c-55.3-29.1-101.4-70.9-133.1-120.9c-31.4-49.4-48-105.6-48-162.4v-44.4c0-6.4,3.9-12.2,9.9-14.6
	c32.9-13,59.5-37.5,74-68c2.6-5.4,8.1-8.9,14.1-8.9h182.6c6,0,11.6,3.4,14.1,8.9c14.5,30.5,41.1,55,74,68c6,2.4,9.9,8.2,9.9,14.6
	v44.4c0,56.8-16.6,113-48,162.4c-31.8,50-77.8,91.8-133.1,120.9l-0.9,0.5c-4.6,2.4-10.1,2.4-14.6,0L247.8,460.3z"/>
<path class="st3" d="M435.5,117.9c-0.3-0.1-0.5-0.2-0.8-0.3c-0.4-0.2-0.9-0.3-1.3-0.5c-0.7-0.3-1.5-0.6-2.2-0.9
	c-0.4-0.2-0.8-0.4-1.2-0.5c-0.8-0.3-1.5-0.7-2.3-1c-0.3-0.2-0.7-0.3-1-0.5c-1.1-0.5-2.2-1.1-3.3-1.6c-0.1,0-0.2-0.1-0.2-0.1
	c-1-0.5-2-1-3-1.6c-0.3-0.2-0.7-0.4-1-0.6c-0.7-0.4-1.4-0.8-2.1-1.2c-0.4-0.2-0.8-0.5-1.2-0.7c-0.7-0.4-1.3-0.8-2-1.2
	c-0.4-0.2-0.8-0.5-1.1-0.7c-0.7-0.4-1.4-0.9-2.1-1.3c-0.3-0.2-0.7-0.4-1-0.6c-0.9-0.6-1.9-1.2-2.8-1.9c-0.1,0-0.1-0.1-0.2-0.1
	c-1-0.7-2-1.4-2.9-2.1c-0.3-0.2-0.6-0.4-0.9-0.7c-0.7-0.5-1.3-1-2-1.5c-0.4-0.3-0.7-0.5-1-0.8c-0.6-0.5-1.2-0.9-1.8-1.4
	c-0.3-0.3-0.7-0.6-1-0.8c-0.6-0.5-1.2-1-1.8-1.5c-0.3-0.3-0.6-0.5-0.9-0.8c-0.7-0.6-1.5-1.3-2.2-2c-0.1-0.1-0.3-0.3-0.5-0.4
	c-0.9-0.8-1.7-1.6-2.6-2.4c-0.2-0.2-0.5-0.5-0.7-0.7c-0.6-0.6-1.2-1.2-1.8-1.8c-0.3-0.3-0.6-0.6-0.9-0.9c-0.5-0.5-1.1-1.1-1.6-1.7
	c-0.3-0.3-0.6-0.7-0.9-1c-0.5-0.6-1-1.1-1.5-1.7c-0.3-0.3-0.6-0.6-0.8-0.9c-0.6-0.7-1.2-1.4-1.8-2.1c-0.2-0.2-0.3-0.4-0.5-0.6
	c-0.7-0.9-1.5-1.8-2.2-2.7c-0.2-0.2-0.4-0.5-0.5-0.7c-0.5-0.7-1.1-1.4-1.6-2.1c-0.2-0.3-0.5-0.7-0.7-1c-0.4-0.6-0.9-1.2-1.3-1.9
	c-0.3-0.4-0.5-0.7-0.8-1.1c-0.4-0.6-0.8-1.3-1.3-1.9c-0.2-0.4-0.5-0.7-0.7-1.1c-0.5-0.7-0.9-1.4-1.4-2.2c-0.2-0.3-0.3-0.5-0.5-0.8
	c-0.6-1-1.2-2-1.8-3c-0.1-0.2-0.2-0.4-0.4-0.6c-0.5-0.8-0.9-1.6-1.3-2.4c-0.2-0.4-0.4-0.7-0.6-1.1c-0.4-0.7-0.7-1.4-1.1-2.1
	c-0.2-0.4-0.4-0.8-0.6-1.2c-0.1-0.3-0.3-0.6-0.4-0.9c-2.6-5.4-8.1-8.9-14.1-8.9H256v421.5c2.5,0,5-0.6,7.3-1.8l0.9-0.5
	c55.3-29.1,101.4-70.9,133.1-120.9c31.4-49.4,48-105.6,48-162.4v-44.4C445.3,126.1,441.4,120.3,435.5,117.9z"/>
<path class="st4" d="M435.5,117.9c-0.3-0.1-0.5-0.2-0.8-0.3c-0.4-0.2-0.9-0.3-1.3-0.5c-0.7-0.3-1.5-0.6-2.2-0.9
	c-0.4-0.2-0.8-0.4-1.2-0.5c-0.8-0.3-1.5-0.7-2.3-1c-0.3-0.2-0.7-0.3-1-0.5c-1.1-0.5-2.2-1.1-3.3-1.6c-0.1,0-0.2-0.1-0.2-0.1
	c-1-0.5-2-1-3-1.6c-0.3-0.2-0.7-0.4-1-0.6c-0.7-0.4-1.4-0.8-2.1-1.2c-0.4-0.2-0.8-0.5-1.2-0.7c-0.7-0.4-1.3-0.8-2-1.2
	c-0.4-0.2-0.8-0.5-1.1-0.7c-0.7-0.4-1.4-0.9-2.1-1.3c-0.3-0.2-0.7-0.4-1-0.6c-0.9-0.6-1.9-1.2-2.8-1.9c-0.1,0-0.1-0.1-0.2-0.1
	c-1-0.7-2-1.4-2.9-2.1c-0.3-0.2-0.6-0.4-0.9-0.7c-0.7-0.5-1.3-1-2-1.5c-0.4-0.3-0.7-0.5-1-0.8c-0.6-0.5-1.2-0.9-1.8-1.4
	c-0.3-0.3-0.7-0.6-1-0.8c-0.6-0.5-1.2-1-1.8-1.5c-0.3-0.3-0.6-0.5-0.9-0.8c-0.7-0.6-1.5-1.3-2.2-2c-0.1-0.1-0.3-0.3-0.5-0.4
	c-0.9-0.8-1.7-1.6-2.6-2.4c-0.2-0.2-0.5-0.5-0.7-0.7c-0.6-0.6-1.2-1.2-1.8-1.8c-0.3-0.3-0.6-0.6-0.9-0.9c-0.5-0.5-1.1-1.1-1.6-1.7
	c-0.3-0.3-0.6-0.7-0.9-1c-0.5-0.6-1-1.1-1.5-1.7c-0.3-0.3-0.6-0.6-0.8-0.9c-0.6-0.7-1.2-1.4-1.8-2.1c-0.2-0.2-0.3-0.4-0.5-0.6
	c-0.7-0.9-1.5-1.8-2.2-2.7c-0.2-0.2-0.4-0.5-0.5-0.7c-0.5-0.7-1.1-1.4-1.6-2.1c-0.2-0.3-0.5-0.7-0.7-1c-0.4-0.6-0.9-1.2-1.3-1.9
	c-0.3-0.4-0.5-0.7-0.8-1.1c-0.4-0.6-0.8-1.3-1.3-1.9c-0.2-0.4-0.5-0.7-0.7-1.1c-0.5-0.7-0.9-1.5-1.4-2.2c-0.2-0.3-0.3-0.5-0.5-0.8
	c-0.6-1-1.2-2-1.8-3c-0.1-0.2-0.2-0.4-0.4-0.6c-0.5-0.8-0.9-1.6-1.3-2.4c-0.2-0.4-0.4-0.7-0.6-1.1c-0.4-0.7-0.7-1.4-1.1-2.1
	c-0.2-0.4-0.4-0.8-0.6-1.2c-0.1-0.3-0.3-0.6-0.4-0.9c-2.6-5.4-8.1-8.9-14.1-8.9H322c3.3,4.1,6.9,9.6,11.1,16.8
	c0.2,0.3,0.3,0.6,0.4,0.9c0.2,0.4,0.4,0.8,0.6,1.2c0.3,0.7,0.7,1.4,1.1,2.1c0.2,0.4,0.4,0.7,0.6,1.1c0.4,0.8,0.9,1.6,1.3,2.4
	c0.1,0.2,0.2,0.4,0.4,0.6c0.6,1,1.2,2,1.8,3c0.2,0.3,0.3,0.5,0.5,0.8c0.4,0.7,0.9,1.5,1.4,2.2c0.2,0.4,0.5,0.7,0.7,1.1
	c0.4,0.6,0.8,1.3,1.3,1.9c0.2,0.4,0.5,0.7,0.8,1.1c0.4,0.6,0.9,1.2,1.3,1.9c0.2,0.3,0.5,0.7,0.7,1c0.5,0.7,1,1.4,1.6,2.1
	c0.2,0.2,0.4,0.5,0.5,0.7c0.7,0.9,1.5,1.8,2.2,2.7c0.2,0.2,0.3,0.4,0.5,0.6c0.6,0.7,1.2,1.4,1.8,2.1c0.3,0.3,0.5,0.6,0.8,0.9
	c0.5,0.6,1,1.2,1.5,1.7c0.3,0.3,0.6,0.7,0.9,1c0.5,0.6,1,1.1,1.6,1.7c0.3,0.3,0.6,0.6,0.9,0.9c0.6,0.6,1.2,1.2,1.8,1.8
	c0.2,0.2,0.5,0.5,0.7,0.7c0.8,0.8,1.7,1.6,2.6,2.4c0.1,0.1,0.3,0.3,0.5,0.4c0.7,0.7,1.5,1.3,2.2,2c0.3,0.3,0.6,0.5,0.9,0.8
	c0.6,0.5,1.2,1,1.8,1.5c0.3,0.3,0.7,0.6,1,0.8c0.6,0.5,1.2,1,1.8,1.4c0.3,0.3,0.7,0.5,1,0.8c0.7,0.5,1.3,1,2,1.5
	c0.3,0.2,0.6,0.4,0.9,0.7c1,0.7,1.9,1.4,2.9,2.1c0.1,0,0.1,0.1,0.2,0.1c0.9,0.6,1.8,1.2,2.8,1.9c0.3,0.2,0.7,0.4,1,0.6
	c0.7,0.4,1.4,0.9,2.1,1.3c0.4,0.2,0.8,0.5,1.1,0.7c0.7,0.4,1.3,0.8,2,1.2c0.4,0.2,0.8,0.5,1.2,0.7c0.7,0.4,1.4,0.8,2.1,1.2
	c0.3,0.2,0.7,0.4,1,0.6c1,0.5,2,1,3,1.6c0.1,0,0.2,0.1,0.2,0.1c1.1,0.5,2.2,1.1,3.3,1.6c0.3,0.2,0.7,0.3,1,0.5
	c0.8,0.4,1.5,0.7,2.3,1c0.4,0.2,0.8,0.4,1.2,0.5c0.7,0.3,1.4,0.6,2.2,0.9c0.4,0.2,0.9,0.4,1.3,0.5c0.3,0.1,0.5,0.2,0.8,0.3
	c6,2.4,9.9,8.2,9.9,14.6v44.4c0,56.8-16.6,113-48,162.4c-27.8,43.8-66.6,85.6-113.1,114.9v0.4c2.5,0,5-0.6,7.3-1.8l0.9-0.5
	c55.3-29.1,101.4-70.9,133.1-120.9c31.4-49.4,48-105.6,48-162.4v-44.4C445.3,126.1,441.4,120.3,435.5,117.9z"/>
<path class="st5" d="M339.5,325.3H173.1c-8.8,0-15.9-7.1-15.9-15.9V205c0-8.8,7.1-15.9,15.9-15.9h166.4c8.8,0,15.9,7.1,15.9,15.9
	v104.3C355.3,318.1,348.2,325.3,339.5,325.3z"/>
<path class="st6" d="M339.5,189.2h-28.8c8.8,0,15.9,7.1,15.9,15.9v104.3c0,8.8-7.1,15.9-15.9,15.9h28.8c8.8,0,15.9-7.1,15.9-15.9
	V205C355.3,196.3,348.2,189.2,339.5,189.2z"/>
<path d="M249,264.7v20.7c0,4,3.3,7.3,7.3,7.3c4,0,7.3-3.3,7.3-7.3v-20.7c5.8-2.7,9.8-8.6,9.8-15.4c0-9.4-7.6-17.1-17.1-17.1
	s-17.1,7.6-17.1,17.1C239.2,256.1,243.2,262,249,264.7z"/>
<path d="M244.4,466.7L244.4,466.7l0.9,0.5c3.4,1.8,7,2.6,10.7,2.6c3.7,0,7.4-0.9,10.7-2.6l0.9-0.5c56.5-29.7,103.5-72.4,135.9-123.5
	c32.1-50.6,49.1-108.1,49.1-166.3v-44.4c0-9.5-5.7-17.9-14.5-21.4c-31.4-12.4-56.3-35.3-70.1-64.4c-3.8-7.9-11.9-13-20.7-13H164.7
	c-8.8,0-17,5.1-20.7,13c-13.8,29.1-38.7,52-70.1,64.4c-8.8,3.5-14.5,11.9-14.5,21.4v44.4c0,58.2,17,115.7,49.1,166.3
	C140.9,394.3,187.9,437,244.4,466.7z M74,176.9v-44.4c0-3.5,2.1-6.6,5.3-7.8c34.8-13.8,62.5-39.2,77.9-71.7c1.4-2.9,4.3-4.7,7.6-4.7
	h182.6c3.2,0,6.2,1.8,7.6,4.7c15.4,32.4,43.1,57.9,77.9,71.7c3.2,1.3,5.3,4.3,5.3,7.8v44.4c0,55.4-16.2,110.3-46.8,158.5
	c-31.1,48.9-76.2,89.9-130.4,118.4l-0.9,0.5c-2.5,1.3-5.4,1.3-7.9,0l-0.9-0.5c-54.2-28.5-99.3-69.4-130.4-118.4
	C90.1,287.2,74,232.4,74,176.9z"/>
<path d="M474.7,246.1c-3.9-0.9-7.8,1.6-8.7,5.5c-22.2,98.2-89.8,183.3-185.4,233.6l-22.2,11.7c-1.4,0.8-3.1,0.8-4.6,0l-22.2-11.7
	C135.7,434.8,68.1,349.5,46,251.2c-0.9-3.9-4.8-6.4-8.7-5.5c-3.9,0.9-6.4,4.8-5.5,8.7c23,102.5,93.4,191.4,193,243.7l22.2,11.7
	c2.8,1.5,6,2.2,9.1,2.2c3.1,0,6.2-0.7,9.1-2.2l22.2-11.7c99.4-52.3,169.7-140.9,192.9-243.3C481.1,250.9,478.6,247,474.7,246.1z"/>
<path d="M471.1,83.4C432.2,79.3,401.6,52,396.7,17c-1.4-9.7-9.7-17-19.3-17H134.6c-9.7,0-18,7.3-19.3,17
	c-4.9,35-35.5,62.3-74.4,66.4c-9.9,1-17.3,9.4-17.3,19.4V181c0,11.4,0.6,22.9,1.8,34.2c0.4,3.8,3.5,6.5,7.2,6.5c0.2,0,0.5,0,0.8,0
	c4-0.4,6.9-4,6.5-8c-1.1-10.8-1.7-21.8-1.7-32.7v-78.2c0-2.5,1.9-4.6,4.2-4.9C88,93.1,123.9,60.6,129.7,19c0.4-2.6,2.4-4.4,4.9-4.4
	h242.8c2.5,0,4.5,1.9,4.9,4.4c5.8,41.6,41.7,74.1,87.3,78.9c2.4,0.3,4.2,2.4,4.2,4.9V181c0,10.8-0.6,21.6-1.6,32.3
	c-0.4,4,2.5,7.6,6.5,8c4,0.4,7.6-2.5,8-6.5c1.1-11.2,1.7-22.6,1.7-33.8v-78.2C488.4,92.7,481,84.4,471.1,83.4z"/>
<path d="M339.5,332.5c12.8,0,23.2-10.4,23.2-23.2V205c0-12.8-10.4-23.2-23.2-23.2h-12v-34.8c0-39.3-31.9-71.2-71.2-71.2
	c-39.3,0-71.2,31.9-71.2,71.2v34.8h-12c-12.8,0-23.2,10.4-23.2,23.2v104.3c0,12.8,10.4,23.2,23.2,23.2L339.5,332.5L339.5,332.5z
	 M204.7,147.1c0-31.2,20.4-51.6,51.6-51.6s51.6,20.4,51.6,51.6v34.8H204.7V147.1z M164.5,309.4V205c0-4.7,3.9-8.6,8.6-8.6h166.4
	c4.7,0,8.6,3.9,8.6,8.6v104.3c0,4.7-3.9,8.6-8.6,8.6H173.1C168.4,318,164.5,314.1,164.5,309.4z"/>
</svg>
