<?xml version="1.0" encoding="utf-8"?>
<svg viewBox="0 0 500 500" xmlns="http://www.w3.org/2000/svg">
  <g id="Calque_1" transform="matrix(1, 0, 0, 1, -2.151733, -16.056067)">
    <g transform="matrix(0.882471, 0, 0, 0.919308, 12.051908, 22.182512)">
      <g>
        <path class="st2" d="M378.5,104.2l-28.3-19.6c-3.8-2.6-9-1.7-11.6,2.1c-2.6,3.8-1.7,9,2.1,11.6l28.3,19.6c3.8,2.6,9,1.6,11.6-2.1 C383.2,112,382.3,106.8,378.5,104.2z" style="fill: rgb(50, 72, 86);"/>
      </g>
    </g>
    <g transform="matrix(0.882471, 0, 0, 0.919308, 12.051908, 22.182512)">
      <g>
        <path class="st2" d="M435.2,143.4l-28.3-19.6c-3.8-2.6-9-1.7-11.6,2.1c-2.6,3.8-1.7,9,2.1,11.6c0,0,28.3,19.6,28.3,19.6 c3.6,2.5,9,1.7,11.6-2.1C439.9,151.3,439,146.1,435.2,143.4z" style="fill: rgb(50, 72, 86);"/>
      </g>
    </g>
    <g transform="matrix(0.882471, 0, 0, 0.919308, 12.051908, 22.182512)">
      <g>
        <path class="st2" d="M167,134.5l-33.6-7.9c-4.5-1.1-9,1.7-10,6.2c-1.1,4.5,1.7,9,6.2,10l33.6,7.9c0.6,0.1,1.3,0.2,1.9,0.2 c3.8,0,7.2-2.6,8.1-6.4C174.3,140,171.5,135.5,167,134.5z" style="fill: rgb(50, 72, 86);"/>
      </g>
    </g>
    <g transform="matrix(0.882471, 0, 0, 0.919308, 12.051908, 22.182512)">
      <g>
        <path class="st2" d="M234.1,150.2l-33.6-7.9c-4.5-1.1-9,1.7-10,6.2c-1.1,4.5,1.7,9,6.2,10l33.6,7.9c0.6,0.1,1.3,0.2,1.9,0.2 c3.8,0,7.2-2.6,8.1-6.4C241.4,155.8,238.6,151.3,234.1,150.2z" style="fill: rgb(50, 72, 86);"/>
      </g>
    </g>
    <g transform="matrix(0.882471, 0, 0, 0.919308, 12.051908, 22.182512)">
      <g>
        <path class="st2" d="M247.2,189.8l-76.1-17.8c-4.5-1.1-9,1.7-10,6.2c-1.1,4.5,1.7,9,6.2,10l67.9,15.9l-54.8,233.6L53.6,407.9 l54.8-233.6l25.8,6.1c4.5,1.1,9-1.7,10-6.2s-1.7-9-6.2-10l-33.9-8c-4.5-1.1-9,1.7-10,6.2L35.5,412.2c-1.1,4.5,1.7,9,6.2,10 l143.1,33.6c0.6,0.1,1.3,0.2,1.9,0.2c1.5,0,3.1-0.4,4.4-1.3c1.9-1.2,3.2-3,3.7-5.2l58.6-249.8 C254.5,195.3,251.7,190.8,247.2,189.8z" style="fill: rgb(50, 72, 86);"/>
      </g>
    </g>
    <g transform="matrix(0.882471, 0, 0, 0.919308, 12.051908, 23.105509)">
      <g>
        <path class="st2" d="M508.4,127.6c-7.1-4.9-9.5-14.4-5.6-22.1c1.9-3.7,0.7-8.3-2.7-10.7l-42.7-29.6c-3.4-2.4-8.1-1.9-10.9,1.2 c-3.3,3.6-8,5.6-12.8,5.6c-3.5,0-6.9-1.1-9.9-3.1c-7.1-4.9-9.5-14.4-5.6-22.1c1.9-3.7,0.7-8.3-2.7-10.7L372.8,6.6 c-3.4-2.4-8.1-1.9-10.9,1.2c-3.3,3.6-8,5.6-12.8,5.6c-3.5,0-6.9-1.1-9.9-3.1c-3.8-2.6-9-1.7-11.6,2.1l-48.3,69.7 c-0.8-0.5-1.6-0.9-2.6-1.1l-50.6-11.9c-4.1-1-8.2,1.2-9.7,5.1c-3.1,8-11.9,12.6-20.2,10.7c-8.4-2-14.2-9.9-13.3-18.5 c0.4-4.2-2.3-8-6.4-8.9L126,45.8c-4.1-1-8.2,1.2-9.7,5.1c-3.1,8-11.9,12.6-20.2,10.7c-4.5-1.1-9,1.7-10,6.2 c0,0-12.5,53.3-12.5,53.3L0.2,433.7c-1.1,4.5,1.7,9,6.2,10c8.4,2,14.2,10,13.3,18.5c-0.4,4.2,2.3,8,6.4,8.9l50.6,11.9 c4.1,1,8.2-1.2,9.7-5.1c7-18.4,35.4-11.7,33.5,7.9c-0.4,4.2,2.3,8,6.4,8.9l50.6,11.9c4,0.9,8.2-1.3,9.7-5.1 c2.5-6.7,9.1-11.1,16.2-11.1c3.7,0,6.8,1.6,10.3-0.6c1.9-1.2,3.2-3,3.7-5.2l11-46.8c0,0,23.5,16.3,23.5,16.3 c3.3,2.3,8.1,1.8,10.9-1.2c3.3-3.6,8-5.6,12.8-5.6c3.5,0,6.9,1.1,9.9,3.1c3.8,2.6,9,1.7,11.6-2.1l213.9-309 C513.1,135.4,512.2,130.2,508.4,127.6z M226.9,368.4c0,0-12.6,53.6-12.6,53.6l-12.1,51.6c-11.3,0.2-21.7,6.1-27.8,15.3l-38-8.9 c-1.7-13.8-12-25.7-26-29c-13.7-3.2-28.4,2.6-36.2,14.4l-38-8.9c-1.4-11.1-8.2-20.9-18.1-26l69.8-297.4l8.1,1.9 c0.6,0.1,1.3,0.2,1.9,0.2c3.8,0,7.2-2.6,8.1-6.4c1.1-4.5-1.7-9-6.2-10l-8.1-1.9l8.9-38c11.3-0.2,21.7-6.1,27.8-15.3l38,8.9 c1.7,13.8,12,25.7,26,29c13.7,3.2,28.4-2.6,36.2-14.4l38,8.9c0.1,0,0.3,2.2,0.4,2.4c0.5,2.5,1.3,4.9,2.3,7.2 c3.1,7,8.6,12.8,15.4,16.4l-8.9,38.1l-8.1-1.9c-4.5-1.1-9,1.7-10,6.2c-1.1,4.5,1.7,9,6.2,10l8.1,1.9l-13.3,56.6 c0,0-1.5,6.2-1.5,6.2l-9.7,41.5C247.5,280.6,226.9,368.4,226.9,368.4z M277.3,226.6l21.5-91.6l10.5-15.2L416.5,194L402,215 c-2.6,3.8-1.7,9,2.1,11.6c3.8,2.6,9,1.7,11.6-2.1c0,0,19.2-27.8,19.3-27.8c2.6-3.7,1.6-9-2.1-11.6c0,0-120.6-83.5-120.9-83.7 c-3.8-2.6-9-1.6-11.6,2.1l-3.6,5.2c-0.1,0-0.2-0.1-0.3-0.1c-4.1-1-7.8-3.4-10.2-6.9c0,0,0-0.1-0.1-0.1l19.2-27.7 c0,0,6.9,4.8,6.9,4.8c3.6,2.5,9,1.7,11.6-2.1c2.6-3.8,1.7-9-2.1-11.6l-6.9-4.8l22.2-32.1c3.8,1.4,7.8,2.2,11.9,2.2 c7,0,13.9-2.2,19.6-6.2l32.1,22.2c-3.4,13.5,1.7,28.3,13.6,36.5c11.6,8,27.4,8,38.9-0.1l32.1,22.2c-2.8,10.8,0,22.4,7.3,30.9 l-22.2,32.1l-6.9-4.8c-3.8-2.6-9-1.7-11.6,2.1c-2.6,3.8-1.7,9,2.1,11.6l6.9,4.8L287,432.7c-3.8-1.4-7.8-2.2-11.9-2.2 c-7,0-13.9,2.2-19.6,6.2l-23.6-16.4l8.5-36.1l36.9,25.6c3.8,2.6,9,1.6,11.6-2.1l107.4-155.1c2.6-3.8,1.7-9-2.1-11.6 c-3.8-2.6-9-1.7-11.6,2.1L279.9,391.3l-35.5-24.6l16.3-69.4" style="fill: rgb(50, 72, 86);"/>
      </g>
    </g>
  </g>
</svg>