<?xml version="1.0" encoding="utf-8"?>
<!-- Generator: Adobe Illustrator 24.2.2, SVG Export Plug-In . SVG Version: 6.00 Build 0)  -->
<svg version="1.1" id="Calque_1" xmlns="http://www.w3.org/2000/svg" xmlns:xlink="http://www.w3.org/1999/xlink" x="0px" y="0px"
	 viewBox="0 0 451.8 461.2" style="enable-background:new 0 0 451.8 461.2;" xml:space="preserve">
<style type="text/css">
	.st0{fill-opacity:0;stroke:#FFFFFF;stroke-width:8;}
	.st1{stroke:#FFFFFF;stroke-width:8;}
	.st2{fill:#FFFFFF;}
</style>
<g id="Calque_4">
	<g>
		<g>
			<path id="A_1_" class="st0" d="M298.8,231l-27.6,66.7l-56.5-2.7L246,194l52.5-19.1l0.1,56.8L298.8,231z"/>
		</g>
		<g>
			<path id="C_3_" class="st0" d="M298.7,227.4l-84.3,64.5"/>
		</g>
		<g>
			<path id="D_1_" class="st0" d="M275,202l18.6-26.6"/>
		</g>
		<g>
			<path id="E_1_" class="st0" d="M275.2,201.7l-41.9,19.2l-9.4,46.4l41.9,29.4c0.4,0.3,0.9,0.2,1.1-0.2c0.1-0.1,0.1-0.2,0.1-0.4
				L275.2,201.7z"/>
		</g>
	</g>
	<path class="st1" d="M210.4,294.8"/>
</g>
<g id="Calque_1_1_">
	<g transform="matrix(0.882471, 0, 0, 0.919308, 12.051908, 22.182512)">
		<g>
			<path class="st2" d="M364.9,74l-28.3-19.6c-3.8-2.6-9-1.7-11.6,2.1c-2.6,3.8-1.7,9,2.1,11.6l28.3,19.6c3.8,2.6,9,1.6,11.6-2.1
				C369.6,81.8,368.7,76.6,364.9,74z"/>
		</g>
	</g>
	<g transform="matrix(0.882471, 0, 0, 0.919308, 12.051908, 22.182512)">
		<g>
			<path class="st2" d="M421.6,113.2l-28.3-19.6c-3.8-2.6-9-1.7-11.6,2.1c-2.6,3.8-1.7,9,2.1,11.6l28.3,19.6c3.6,2.5,9,1.7,11.6-2.1
				C426.3,121.1,425.4,115.9,421.6,113.2z"/>
		</g>
	</g>
	<g transform="matrix(0.882471, 0, 0, 0.919308, 12.051908, 22.182512)">
		<g>
			<path class="st2" d="M153.4,104.3l-33.6-7.9c-4.5-1.1-9,1.7-10,6.2c-1.1,4.5,1.7,9,6.2,10l33.6,7.9c0.6,0.1,1.3,0.2,1.9,0.2
				c3.8,0,7.2-2.6,8.1-6.4C160.7,109.8,157.9,105.3,153.4,104.3z"/>
		</g>
	</g>
	<g transform="matrix(0.882471, 0, 0, 0.919308, 12.051908, 22.182512)">
		<g>
			<path class="st2" d="M220.5,120l-33.6-7.9c-4.5-1.1-9,1.7-10,6.2c-1.1,4.5,1.7,9,6.2,10l33.6,7.9c0.6,0.1,1.3,0.2,1.9,0.2
				c3.8,0,7.2-2.6,8.1-6.4C227.8,125.6,225,121.1,220.5,120z"/>
		</g>
	</g>
	<g transform="matrix(0.882471, 0, 0, 0.919308, 12.051908, 22.182512)">
		<g>
			<path class="st2" d="M233.6,159.6l-76.1-17.8c-4.5-1.1-9,1.7-10,6.2c-1.1,4.5,1.7,9,6.2,10l67.9,15.9l-54.8,233.6L40,377.7
				l54.8-233.6l25.8,6.1c4.5,1.1,9-1.7,10-6.2s-1.7-9-6.2-10l-33.9-8c-4.5-1.1-9,1.7-10,6.2L21.9,382c-1.1,4.5,1.7,9,6.2,10
				l143.1,33.6c0.6,0.1,1.3,0.2,1.9,0.2c1.5,0,3.1-0.4,4.4-1.3c1.9-1.2,3.2-3,3.7-5.2l58.6-249.8
				C240.9,165.1,238.1,160.6,233.6,159.6z"/>
		</g>
	</g>
	<g transform="matrix(0.882471, 0, 0, 0.919308, 12.051908, 23.105509)">
		<g>
			<path class="st2" d="M494.8,97.4c-7.1-4.9-9.5-14.4-5.6-22.1c1.9-3.7,0.7-8.3-2.7-10.7L443.8,35c-3.4-2.4-8.1-1.9-10.9,1.2
				c-3.3,3.6-8,5.6-12.8,5.6c-3.5,0-6.9-1.1-9.9-3.1c-7.1-4.9-9.5-14.4-5.6-22.1c1.9-3.7,0.7-8.3-2.7-10.7l-42.7-29.5
				c-3.4-2.4-8.1-1.9-10.9,1.2c-3.3,3.6-8,5.6-12.8,5.6c-3.5,0-6.9-1.1-9.9-3.1c-3.8-2.6-9-1.7-11.6,2.1l-48.3,69.7
				c-0.8-0.5-1.6-0.9-2.6-1.1l-50.6-11.9c-4.1-1-8.2,1.2-9.7,5.1c-3.1,8-11.9,12.6-20.2,10.7c-8.4-2-14.2-9.9-13.3-18.5
				c0.4-4.2-2.3-8-6.4-8.9l-50.5-11.7c-4.1-1-8.2,1.2-9.7,5.1c-3.1,8-11.9,12.6-20.2,10.7c-4.5-1.1-9,1.7-10,6.2L60,90.9
				l-73.4,312.6c-1.1,4.5,1.7,9,6.2,10c8.4,2,14.2,10,13.3,18.5c-0.4,4.2,2.3,8,6.4,8.9l50.6,11.9c4.1,1,8.2-1.2,9.7-5.1
				c7-18.4,35.4-11.7,33.5,7.9c-0.4,4.2,2.3,8,6.4,8.9l50.6,11.9c4,0.9,8.2-1.3,9.7-5.1c2.5-6.7,9.1-11.1,16.2-11.1
				c3.7,0,6.8,1.6,10.3-0.6c1.9-1.2,3.2-3,3.7-5.2l11-46.8l23.5,16.3c3.3,2.3,8.1,1.8,10.9-1.2c3.3-3.6,8-5.6,12.8-5.6
				c3.5,0,6.9,1.1,9.9,3.1c3.8,2.6,9,1.7,11.6-2.1l213.9-309C499.5,105.2,498.6,100,494.8,97.4z M213.3,338.2l-12.6,53.6l-12.1,51.6
				c-11.3,0.2-21.7,6.1-27.8,15.3l-38-8.9c-1.7-13.8-12-25.7-26-29c-13.7-3.2-28.4,2.6-36.2,14.4l-38-8.9
				c-1.4-11.1-8.2-20.9-18.1-26l69.8-297.4l8.1,1.9c0.6,0.1,1.3,0.2,1.9,0.2c3.8,0,7.2-2.6,8.1-6.4c1.1-4.5-1.7-9-6.2-10l-8.1-1.9
				l8.9-38c11.3-0.2,21.7-6.1,27.8-15.3l38,8.9c1.7,13.8,12,25.7,26,29c13.7,3.2,28.4-2.6,36.2-14.4l38,8.9c0.1,0,0.3,2.2,0.4,2.4
				c0.5,2.5,1.3,4.9,2.3,7.2c3.1,7,8.6,12.8,15.4,16.4l-8.9,38.1l-8.1-1.9c-4.5-1.1-9,1.7-10,6.2c-1.1,4.5,1.7,9,6.2,10l8.1,1.9
				l-13.3,56.6l-1.5,6.2l-9.7,41.5C233.9,250.4,213.3,338.2,213.3,338.2z M263.7,196.4l21.5-91.6l10.5-15.2l107.2,74.2l-14.5,21
				c-2.6,3.8-1.7,9,2.1,11.6c3.8,2.6,9,1.7,11.6-2.1c0,0,19.2-27.8,19.3-27.8c2.6-3.7,1.6-9-2.1-11.6c0,0-120.6-83.5-120.9-83.7
				c-3.8-2.6-9-1.6-11.6,2.1l-3.6,5.2c-0.1,0-0.2-0.1-0.3-0.1c-4.1-1-7.8-3.4-10.2-6.9c0,0,0-0.1-0.1-0.1l19.2-27.7l6.9,4.8
				c3.6,2.5,9,1.7,11.6-2.1c2.6-3.8,1.7-9-2.1-11.6l-6.9-4.8l22.2-32.1c3.8,1.4,7.8,2.2,11.9,2.2c7,0,13.9-2.2,19.6-6.2l32.1,22.2
				c-3.4,13.5,1.7,28.3,13.6,36.5c11.6,8,27.4,8,38.9-0.1l32.1,22.2c-2.8,10.8,0,22.4,7.3,30.9l-22.2,32.1l-6.9-4.8
				c-3.8-2.6-9-1.7-11.6,2.1s-1.7,9,2.1,11.6l6.9,4.8L273.4,402.5c-3.8-1.4-7.8-2.2-11.9-2.2c-7,0-13.9,2.2-19.6,6.2l-23.6-16.4
				l8.5-36.1l36.9,25.6c3.8,2.6,9,1.6,11.6-2.1l107.4-155.1c2.6-3.8,1.7-9-2.1-11.6c-3.8-2.6-9-1.7-11.6,2.1L266.3,361.1l-35.5-24.6
				l16.3-69.4"/>
		</g>
	</g>
</g>
<g id="Calque_3">
	<g>
		<g>
			<path id="A" class="st0" d="M167.4,248.7l-0.9,72.2L113,339.3l-40.4-40.6l32-64.8l41.7-37.2l21.2,52.7L167.4,248.7z"/>
		</g>
		<g>
			<path id="B" class="st0" d="M104.6,233.8l8.4,105.4"/>
		</g>
		<g>
			<path id="C" class="st0" d="M167.4,248.1L113,339.3"/>
		</g>
		<g>
			<path id="D" class="st0" d="M138.6,229.1l7.5-31.6"/>
		</g>
		<g>
			<path id="E" class="st0" d="M138.6,228.8l-65.7,69.1c-0.2,0.2-0.2,0.5,0,0.7c0.1,0.1,0.1,0.1,0.2,0.1l92,21.7
				c0.4,0.1,0.9-0.2,1-0.6c0-0.1,0-0.3,0-0.4L138.6,228.8z"/>
		</g>
	</g>
</g>
</svg>
