<?xml version="1.0" encoding="utf-8"?>
<!-- Generator: Adobe Illustrator 24.2.2, SVG Export Plug-In . SVG Version: 6.00 Build 0)  -->
<svg version="1.1" id="Capa_1" xmlns="http://www.w3.org/2000/svg" xmlns:xlink="http://www.w3.org/1999/xlink" x="0px" y="0px"
	 viewBox="0 0 512 512" style="enable-background:new 0 0 512 512;" xml:space="preserve">
<style type="text/css">
	.st0{fill:#D66C44;}
	.st1{fill:#9F3E1A;}
	.st2{fill:#5D7383;}
	.st3{fill:#324856;}
	.st4{fill:#CFDBE5;}
</style>
<path class="st0" d="M504.5,225.9v-59.2c0-2.6-1.9-4.9-4.5-5.3c-16.3-2.2-28.9-16.2-28.9-33.1c0,0,0,0,0-0.1c0-3-2.4-5.5-5.4-5.5
	H46.2c-3,0-5.4,2.5-5.4,5.5c0,0,0,0,0,0.1c0,16.9-12.6,30.9-28.9,33.1c-2.6,0.4-4.5,2.7-4.5,5.3v59.2c0,2.6,1.9,4.8,4.4,5.3
	c11.8,2.1,20.8,12.4,20.8,24.8c0,12.4-9,22.7-20.8,24.8c-2.6,0.5-4.4,2.7-4.4,5.3v59.2c0,2.6,1.9,5,4.5,5.3
	c16.3,2.2,28.9,16.2,28.9,33.1c0,0,0,0,0,0.1c0,3,2.4,5.5,5.4,5.5h419.5c3,0,5.4-2.5,5.4-5.5c0,0,0,0,0-0.1
	c0-16.9,12.6-30.9,28.9-33.1c2.6-0.4,4.5-2.7,4.5-5.3v-59.2c0-2.6-1.9-4.8-4.4-5.3c-11.8-2.1-20.8-12.4-20.8-24.8s9-22.7,20.8-24.8
	C502.6,230.7,504.5,228.5,504.5,225.9z"/>
<path class="st1" d="M479.3,256c0,12.4,9,22.7,20.8,24.8c2.6,0.5,4.4,2.7,4.4,5.3v59.2c0,2.6-1.9,5-4.5,5.3
	c-16.3,2.2-28.9,16.2-28.9,33.1v0.1c0,3-2.4,5.5-5.4,5.5h-25.1c0.7-17.2,10.4-43,27.1-45.2c2.8-0.4,4.8-2.8,4.8-5.6V176.7
	c0-2.8-2-5.2-4.8-5.6c-16.7-2.3-26.5-31.1-27.1-48.2h25.1c3,0,5.4,2.5,5.4,5.5v0.1c0,16.9,12.6,30.9,28.9,33.1
	c2.6,0.4,4.5,2.7,4.5,5.3v59.2c0,2.6-1.9,4.8-4.4,5.3C488.3,233.3,479.3,243.6,479.3,256z"/>
<path class="st2" d="M426.6,353.4H85.4c-2.8,0-5-2.2-5-5V163.6c0-2.8,2.2-5,5-5h341.1c2.8,0,5,2.2,5,5v184.8
	C431.6,351.2,429.3,353.4,426.6,353.4z"/>
<path class="st3" d="M426.6,353.4H403V158.6h23.5c2.8,0,5,2.2,5,5v184.8C431.6,351.2,429.3,353.4,426.6,353.4z"/>
<path d="M501.4,238.6c6.1-1.1,10.6-6.4,10.6-12.7v-59.2c0-6.4-4.7-11.9-11-12.7c-12.8-1.7-22.4-12.8-22.4-25.7
	c0-3.5-1.3-6.8-3.8-9.2c-2.4-2.4-5.6-3.8-9.1-3.8H46.2c-3.4,0-6.6,1.3-9.1,3.8c-2.5,2.5-3.8,5.7-3.8,9.3c0,12.9-9.6,23.9-22.4,25.6
	c-6.3,0.9-11,6.3-11,12.7v59.2c0,6.2,4.5,11.6,10.6,12.7c8.4,1.5,14.6,8.8,14.6,17.4c0,8.6-6.1,15.9-14.6,17.4
	c-6,1.1-10.5,6.4-10.5,12.7v59.2c0,6.4,4.7,11.9,11,12.7c12.8,1.7,22.4,12.8,22.4,25.7c0,3.5,1.3,6.8,3.8,9.2
	c2.4,2.4,5.6,3.8,9.1,3.8h73.4c4.1,0,7.5-3.4,7.5-7.5s-3.4-7.5-7.5-7.5H48.3c-0.9-18.8-14.8-34.8-33.3-38.2v-55.6
	c14.7-3.4,25.2-16.5,25.2-31.8S29.7,227.6,15,224.2v-55.6c18.5-3.4,32.4-19.3,33.3-38.2h415.3c0.9,18.8,14.8,34.8,33.3,38.2v55.6
	c-14.7,3.4-25.2,16.5-25.2,31.8s10.5,28.4,25.2,31.8v55.6c-18.5,3.4-32.4,19.3-33.3,38.2H166.3c-4.1,0-7.5,3.4-7.5,7.5
	s3.4,7.5,7.5,7.5h299.4c3.4,0,6.6-1.3,9.1-3.8s3.8-5.7,3.8-9.3c0-12.9,9.6-23.9,22.4-25.6c6.3-0.9,11-6.3,11-12.7V286
	c0-6.2-4.5-11.6-10.6-12.7c-8.4-1.5-14.6-8.8-14.6-17.4C486.8,247.4,492.9,240.1,501.4,238.6z"/>
<path d="M284,166.1c4.1,0,7.5-3.4,7.5-7.5s-3.4-7.5-7.5-7.5H85.4c-6.9,0-12.5,5.6-12.5,12.5v184.8c0,6.9,5.6,12.5,12.5,12.5h341.1
	c6.9,0,12.5-5.6,12.5-12.5V163.6c0-6.9-5.6-12.5-12.5-12.5h-95c-4.1,0-7.5,3.4-7.5,7.5s3.4,7.5,7.5,7.5H424v179.8H87.9V166.1H284z"
	/>
<path class="st4" d="M146.4,217.1h-33.8c-3.7,0-6.8,3.2-6.8,7.1s3,7.1,6.8,7.1h9.9v51.5c0,3.9,3.1,6.9,7.1,6.9s7.1-3,7.1-6.9v-51.5
	h9.7c3.9,0,6.8-3.1,6.8-7.1C153.2,220.1,150.2,217.1,146.4,217.1z"/>
<path class="st4" d="M169.1,217.1c-4.1,0-7.1,2.9-7.1,6.8v58.8c0,3.9,3.1,6.9,7.1,6.9c4.1,0,7.1-3,7.1-6.9v-58.8
	C176.2,220,173.2,217.1,169.1,217.1z"/>
<path class="st4" d="M212.2,231.2c6.4,0,7.5,3,7.7,6c0.1,3.8,3.1,6.6,7.1,6.6c3.5,0,7.1-2.1,7.1-7.8c0-9.4-7.6-18.8-22-18.8
	c-13.8,0-22.4,8.8-22.4,22.9v27.1c0,14.2,8.5,22.9,22.2,22.9c14.6,0,22.3-9.5,22.3-18.8c0-5.8-3.7-7.9-7.2-7.9c-3.8,0-6.6,2.5-7,6.1
	c-0.6,4.1-1.1,6.5-7.5,6.5c-6.3,0-8.4-2.2-8.4-8.8V240C204.1,234.4,205.4,231.2,212.2,231.2z"/>
<path class="st4" d="M271.2,249.4l16.5-20.6c1.1-1.1,1.8-2.7,1.8-4.4c0-3.8-3.4-7.2-7.3-7.2c-2.2,0-4.2,1-5.5,2.7l-17.2,21.7V224
	c0-3.9-3.1-6.8-7.1-6.8s-7.1,2.9-7.1,6.8v58.8c0,3.9,3.1,6.9,7.1,6.9c4.1,0,7.1-3,7.1-6.9V264l2.3-2.9l16.9,25.2
	c1.3,2.1,3.5,3.3,5.8,3.3c4,0,7.4-3.3,7.4-7.1c0-1.5-0.5-2.9-1.3-4L271.2,249.4z"/>
<path class="st4" d="M337.4,231.2c3.8,0,6.8-3.1,6.8-7.1s-2.9-7-6.8-7H307c-4,0-7.1,3-7.1,6.9v58.7c0,3.9,3.1,6.9,7.1,6.9h30.4
	c3.9,0,6.8-3,6.8-7s-3-7.1-6.8-7.1h-23.2v-15.2h8.6c3.8,0,6.8-3,6.8-6.9c0-4-3-7.1-6.8-7.1h-8.6v-15.1L337.4,231.2L337.4,231.2
	L337.4,231.2z"/>
<path class="st4" d="M388.7,217.1h-33.8c-3.7,0-6.8,3.2-6.8,7.1s3,7.1,6.8,7.1h9.9v51.5c0,3.9,3.1,6.9,7.1,6.9s7.1-3,7.1-6.9v-51.5
	h9.7c3.9,0,6.8-3.1,6.8-7.1C395.5,220.1,392.5,217.1,388.7,217.1z"/>
</svg>
