<?xml version="1.0" encoding="utf-8"?>
<!-- Generator: Adobe Illustrator 24.2.2, SVG Export Plug-In . SVG Version: 6.00 Build 0)  -->
<svg version="1.1" id="Calque_1" xmlns="http://www.w3.org/2000/svg" xmlns:xlink="http://www.w3.org/1999/xlink" x="0px" y="0px"
	 viewBox="0 0 191 62" style="enable-background:new 0 0 191 62;" xml:space="preserve">
<style type="text/css">
	.st0{fill-rule:evenodd;clip-rule:evenodd;fill:#8E8E8E;}
</style>
<desc>Created with sketchtool.</desc>
<g id="Desktop">
	<g id="Homepage-v2-1" transform="translate(-770.000000, -733.000000)">
		<g id="Group-9" transform="translate(480.000000, 730.000000)">
			<g id="Group-6" transform="translate(290.000000, 3.000000)">
				<polygon id="Fill-1" class="st0" points="69.7,14.1 61.3,37 52.8,14.1 38.9,14.1 30.4,37 22,14.1 10.6,14.1 23,47.6 38,47.6 
					45.9,26.1 53.8,47.6 68.7,47.6 81.1,14.1 				"/>
				<polygon id="Fill-2" class="st0" points="163.1,14.1 155,20.8 163.3,27.7 179.7,14.1 				"/>
				<polygon id="Fill-3" class="st0" points="110.2,3.4 142.9,30.8 132.6,39.5 111.1,14.1 97.1,14.1 59.6,58.3 73.6,58.3 
					104.1,22.3 112.9,32.7 101.4,32.7 95.6,39.6 118.7,39.6 125.5,47.6 139.5,47.6 139.5,47.6 151.3,37.7 163.1,47.6 179.8,47.6 
					126.8,3.4 				"/>
			</g>
		</g>
	</g>
</g>
</svg>
